<?xml version="1.0" standalone="no"?><!DOCTYPE svg PUBLIC "-//W3C//DTD SVG 1.1//EN" "http://www.w3.org/Graphics/SVG/1.1/DTD/svg11.dtd"><svg t="1739083169551" class="icon" viewBox="0 0 1025 1024" version="1.1" xmlns="http://www.w3.org/2000/svg" p-id="7112" xmlns:xlink="http://www.w3.org/1999/xlink" width="200.1953125" height="200"><path d="M504.24574 629.896506a47.879204 47.879204 0 0 1-47.879204-47.879203v-329.408922a47.879204 47.879204 0 0 1 95.758407 0v329.408922a47.879204 47.879204 0 0 1-47.879203 47.879203z m0 172.365134a55.539876 55.539876 0 1 1 55.539876-55.539876 55.539876 55.539876 0 0 1-55.539876 55.539876z m8.42674 221.604107A511.943598 511.943598 0 1 1 885.364202 161.733652l-7.660673 6.703089a28.727522 28.727522 0 0 1-28.727522 28.727522 27.980607 27.980607 0 0 1-3.255786-0.651157l-3.064269 2.604628c-1.340618-1.436376-2.872752-2.662084-4.21337-4.079308a29.033949 29.033949 0 0 1-15.704379-15.014918 458.338042 458.338042 0 1 0 103.993631 144.30792 27.846545 27.846545 0 0 1-10.724942-21.832917 28.497702 28.497702 0 0 1 50.177406-18.711193l3.064269-2.451415A511.349896 511.349896 0 0 1 512.67248 1023.827443z" fill="#38ADFF" p-id="7113"></path></svg>